<svg width="2000" height="1109" viewBox="0 0 2000 1109" fill="none" xmlns="http://www.w3.org/2000/svg">
<path fill-rule="evenodd" clip-rule="evenodd" d="M2000 0.5H0V615.611L3.16751 615.845L29 614L57 606L94 603H118.5L132.5 609.5L139.5 615L138.5 621L143.5 627.5L146 636L146.5 643L146 649L153.5 674.5L155.5 694L152 701L149.5 705.5L157 709.5L163.5 718.5L169 731.5L172 743L184.5 747.5L204 756L235.5 769L264 777.5L280.5 783.5L316.5 779L335 775.5L380 775L397 770L409 770.5L422.5 773.5L446 778L475 788L511 801L552.5 825.5L574 830.5L591.5 839.5L611.5 848L625 853.5C630.167 856 640.3 862.3 639.5 867.5C638.7 872.7 659.833 879.333 670.5 882L694 898L706 914.5L710 921L738 921.5L759.5 908.5L826 925L978 955L1024 961.5L1102 986L1152.5 997L1166 992L1179.5 991L1187 996.5L1190.5 1002H1205.5L1228 989L1254 986L1331.5 977L1368 970L1401 962.5L1439.5 947L1466.5 933L1474 930.5L1477 931L1483.5 928L1492.5 923.5L1502.5 915L1509.5 908L1525.5 910L1543.5 918.5L1567 937.5L1570 940.5L1591.5 942L1612 950.5C1616.17 950.667 1625 951 1627 951C1629 951 1636.5 949.333 1640 948.5L1654.5 945L1673 952L1690.5 960L1702.5 965L1721 959L1753.5 957.5L1778.5 960L1829.5 973L1871 990L1924 1013.5L1943 1019L1998 1040L1998.5 1108L0 1108.5H2000V0.5Z" fill="black"/>
</svg>
