<svg width="2000" height="1116" viewBox="0 0 2000 1116" fill="none" xmlns="http://www.w3.org/2000/svg">
<path fill-rule="evenodd" clip-rule="evenodd" d="M2000 0H0V621H1.5L33 617.5L54 613L86 610H109L128 613L136.5 621L139.5 633L145.5 640.5L148 650.5V655L160 657.5L165 662.5L168.5 672L177.5 678H188L202 677.5L211 680L232 673L253.5 664.5L265.5 654L276.5 642L285.5 637.5L294.5 629L306 615L323.5 603L341 590L354 578.5L366.5 570L378.5 561.5H383L393 562L404.5 559.5L409.5 556.5L421.5 549L427.5 544.5L435.5 533.5L450 519L461 515L474 513.5L497 511.5L526 510.5L539 509L562 511C570.167 511.667 587 513.4 589 515C591 516.6 595.167 517.667 597 518L604 516L617 519.5L643.5 520L651.5 514.5H659.5L670 506.5L672.5 504.5L676.5 505L682.5 507.5L701.5 514L710.5 515.5L728.5 527.5L761 546L764.5 545L799 560L816.5 564L837.5 563L850.5 562.5L884.5 553.5L902 545.5L915.5 536.5L928 524L941.5 514.5L953.5 506.5L963.5 501.5L972.5 497L979 498L989 499L999 496H1004L1008.5 499L1014.5 500L1017 506V510.5L1022 512.5L1028.5 510L1037.5 512.5L1053.5 503L1061.5 503.5L1066 498.5L1078.5 495.5L1087.5 493.5L1096.5 496L1100 496.5L1102 493.5L1109 498.5L1113.5 498L1119 490L1125 487.5L1128 491L1131 493.5L1135.5 502L1142 504.5L1149.5 501.5L1161.5 497L1169.5 504L1174 511.5L1184 516L1193.5 520.5L1198.5 527L1201.5 523L1204 521L1205 516.5L1215.5 519L1219 521.5L1220 528.5L1225 532.5L1228 534L1229 541H1234L1254 531L1259.5 527.5L1288.5 517H1293L1303.5 510.5L1313 507L1320 504.5L1325 507L1337 502L1342.5 497L1361.5 488L1366 489L1388 484L1403.5 485.5L1418 493.5L1419.5 502L1427.5 503.5L1430 512.5L1435 515.5L1442.5 521L1447.5 521.5L1457.5 524.5L1479.5 527L1509.5 528L1534.5 526.5L1557.5 528L1589 526.5H1606L1632.5 529.5L1647.5 526.5L1675.5 526L1711.5 518L1755 507.5L1807 532L1865 553L1898.5 567L1921 579.5L1944.5 591.5L1956.5 590.5L1967.5 599L1968 604.5L1977 602.5L1979.5 606L1998 620L2000 950V0ZM2000 1115L1334 1116H2000V1115Z" fill="black"/>
</svg>
