<svg width="2001" height="1109" viewBox="0 0 2001 1109" fill="none" xmlns="http://www.w3.org/2000/svg">
<path fill-rule="evenodd" clip-rule="evenodd" d="M2000 0.5H0.0012207V612.027L13.9965 614.033L37.9905 610.522L58.9853 606.009L96.9758 603L123.969 605.507L136.966 614.033L138.465 624.564L144.964 632.086C145.636 634.178 145.766 635.643 145.977 638.033C146.289 641.562 146.78 647.108 149.463 659.668C149.637 660.482 150.225 662.156 151.001 664.364C153.216 670.669 156.961 681.326 156.961 688.754L178.455 700.79L182.954 715.333L187.453 727.369L193.452 740.909L202.949 753.446L235.441 768.992L275.931 781.028C277.597 781.028 281.43 781.329 283.429 782.532C285.429 783.736 291.261 784.037 293.927 784.037L324.919 779.022L339.915 775.01L370.907 774.007H387.903L395.401 768.992L410.397 770.497H438.89L473.882 769.494L511.372 776.013L530.367 786.544C535.033 785.04 544.864 781.93 546.863 781.529C548.863 781.128 558.36 782.699 562.859 783.535L578.355 792.06L584.354 795.571L602.349 800.586L622.344 802.592L655.336 806.604L666.833 807.105L680.33 815.129L700.325 823.153L715.821 824.657L733.817 822.651L754.811 830.675L768.308 834.687L773.807 839.2L794.301 818.639L811.297 809.612L841.29 805.099L876.281 803.595L899.275 797.577L908.773 796.574L927.768 810.114L933.267 817.636L956.761 823.654L985.254 836.191L1006.75 847.224L1016.75 854.245L1015.25 859.26L1026.74 868.286L1043.74 879.319L1063.23 887.343L1082.23 895.367L1094.73 898.376L1114.72 903.892L1140.21 914.423L1170.21 922.447L1205.7 933.981L1236.19 939.497L1252.69 954.041L1274.18 967.581L1299.18 979.115L1313.67 980.619L1329.67 976.106L1360.66 973.097L1388.65 966.578L1420.15 956.548L1442.64 945.014L1473.63 930.972H1478.13L1497.13 920.441L1511.12 910.411L1529.62 910.913L1545.11 918.937L1563.11 935.987L1571.11 938.996L1592.6 942.005L1616.1 949.527L1634.09 952.035L1642.09 945.515L1657.09 945.014L1685.58 960.56L1700.57 965.073L1732.07 962.064L1762.56 960.56L1802.05 968.584L1855.54 986.637L1881.03 999.676L1937.52 1018.73L1975.01 1033.28C1983.84 1037.79 2000 1048.82 2000 1048.82C2000 1048.82 1999.51 1089.55 1999.99 1108.5H2000V0.5Z" fill="black"/>
</svg>
